<svg width="90" height="61" viewBox="0 0 90 61" fill="none" xmlns="http://www.w3.org/2000/svg">
<path d="M60.3342 16.5032C62.9684 10.6354 66.4032 10.7769 67.7913 11.5812C69.018 12.482 71.2196 15.3451 70.2124 19.5915C69.1145 24.2203 66.5438 25.4732 64.4909 25.718C64.3321 25.7991 63.9756 26.0577 63.8206 26.4437C63.6269 26.9263 63.1427 28.0454 62.7553 28.1614C64.1511 28.4098 65.5718 28.692 67.0165 29.0104C67.5653 28.4444 68.7735 27.3123 69.2159 27.3123C71.9705 21.3586 82.261 19.361 87.1602 19.109C84.5607 22.511 77.5432 28.8501 69.769 27.815C69.7378 27.8108 69.7066 27.8066 69.6754 27.8022C69.4249 27.8073 68.8568 28.0476 67.985 29.0104L68.2755 29.2957C70.1419 29.7303 72.0472 30.2255 73.9893 30.7867C74.1507 30.9154 74.5898 31.1148 75.0546 30.8832C75.6357 30.5937 76.6041 30.2076 76.701 30.4006C76.7978 30.5937 77.0883 31.5588 76.8947 31.6553C76.701 31.7518 76.701 32.4274 73.9893 32.4274C74.183 32.9491 74.7641 34.1256 75.5388 34.6576C77.9591 33.5926 83.011 32.6589 86.676 36.3843C90.5498 40.3219 90.1624 43.9442 89.4845 45.2632C88.6451 47.1934 84.0612 50.0887 77.7663 45.7457C72.2441 39.9887 73.802 36.2035 74.7908 35.1296C74.3945 34.6793 73.5245 33.5469 73.2146 32.6204C72.9047 31.6939 71.7942 31.4623 71.2777 31.4623C71.0496 31.8161 70.594 32.9871 70.5966 34.8401C73.1983 38.3327 76.6954 47.5731 72.343 60.5118C65.678 48.8883 67.6388 39.2282 69.769 35.1296C69.5693 34.2803 70.2375 32.0735 70.5966 31.0762C69.8552 30.7223 68.2949 30.0146 67.985 30.0146C67.5976 30.0146 67.2102 29.5321 66.0481 30.2076C65.1184 30.7481 64.6226 31.8076 64.4909 32.2698C65.7976 32.8206 68.022 35.0923 67.1133 40.1482C66.1836 45.3211 62.2066 47.8368 60.3342 48.448C57.4289 49.2844 52.1218 48.6217 54.1362 39.2796C57.0345 31.5775 61.2747 31.0112 63.6269 31.866C64.0466 31.1523 65.0021 29.7058 65.467 29.6286C66.0481 29.5321 46.0012 26.5402 36.9947 28.1809C37.7371 28.8528 39.2221 30.2846 39.2221 30.6364C41.5824 30.0028 46.1398 30.094 48.8097 34.8401C53.7709 44.2981 49.4876 47.8689 48.2286 48.448C47.0721 48.98 39.9968 49.9922 36.5104 42.2714C34.395 36.4389 36.5314 32.6957 38.2466 31.1727C34.8321 26.077 31.292 30.3041 29.9731 32.4274C32.5298 34.2956 32.8303 37.2914 32.6367 39.183C32.3461 41.628 30.6804 47.039 26.3417 49.1236C20.9184 51.7294 19.1752 48.448 18.691 47.6759C18.2068 46.9039 16.8649 40.6469 20.6419 35.6284C23.6634 31.6136 27.3248 31.5588 28.842 31.9448C28.842 32.2343 29.5376 29.783 30.3124 29.2425C31.2808 28.567 20.6279 32.2343 19.7563 32.4274C19.5672 32.4692 19.1752 32.6204 18.8847 32.2343L18.691 31.9448L18.5942 31.7518C21.2614 30.3812 26.5973 28.4817 34.0893 27.4206C33.7019 26.5035 30.8289 25.0143 29.4408 24.3844C16.3667 26.5622 4.23183 18.4 0 13.9939C6.34156 12.899 21.3233 13.3861 29.6246 23.3554C31.016 24.0632 33.8569 25.5944 34.0893 26.0577C34.3799 26.6368 35.2368 23.3554 36.5999 22.1973C37.4019 16.751 42.3788 5.80986 57.1384 0C55.0504 6.74675 48.1816 20.5503 37.1884 22.8436C36.3417 23.2062 35.4152 25.9587 35.0578 27.2897C37.6599 26.955 40.5073 26.7234 43.5801 26.6481C43.9424 25.947 44.7617 24.5127 45.1404 24.3844C46.0369 20.6559 50.2241 13.1448 61.0121 9.16845C57.2164 20.0071 49.6267 23.9865 45.7107 24.7872C45.4213 24.8517 44.8799 26.0416 44.6454 26.6284C49.599 26.567 55.1134 26.9141 61.109 27.882C62.8134 27.7201 63.3041 26.3423 63.3364 25.6736C61.1232 24.8826 57.8131 22.1192 60.3342 16.5032Z" fill="#D9DD51"/>
</svg>
